<svg xmlns="http://www.w3.org/2000/svg" xmlns:xlink="http://www.w3.org/1999/xlink" viewBox="0,0,256,256" width="48px" height="48px" fill-rule="nonzero"><g fill="#1e293b" fill-rule="nonzero" stroke="none" stroke-width="1" stroke-linecap="butt" stroke-linejoin="miter" stroke-miterlimit="10" stroke-dasharray="" stroke-dashoffset="0" font-family="none" font-weight="none" font-size="none" text-anchor="none" style="mix-blend-mode: normal"><g transform="scale(4,4)"><path d="M28,11c-1.105,0 -2,0.895 -2,2v1h-13c-1.104,0 -2,0.896 -2,2c0,1.104 0.896,2 2,2h1.16016l2.54102,30.49805c0.256,3.085 2.88447,5.50195 5.98047,5.50195h18.63672c3.096,0 5.72347,-2.41695 5.98047,-5.50195l2.54102,-30.49805h1.16016c1.104,0 2,-0.896 2,-2c0,-1.104 -0.896,-2 -2,-2h-13v-1c0,-1.105 -0.895,-2 -2,-2z"></path></g></g></svg>